<svg width="79" height="13" viewBox="0 0 79 13" fill="none" xmlns="http://www.w3.org/2000/svg">
<path fill-rule="evenodd" clip-rule="evenodd" d="M20.8039 0.499878H19.6373C18.9929 0.499878 18.4706 1.00356 18.4706 1.62488V11.3749C18.4706 11.9962 18.9929 12.4999 19.6373 12.4999H20.8039C21.4482 12.4999 21.9706 11.9962 21.9706 11.3749V1.62488C21.9706 1.00356 21.4482 0.499878 20.8039 0.499878ZM14.1471 3.12501H15.3137C15.9581 3.12501 16.4804 3.62869 16.4804 4.25001V11.375C16.4804 11.9963 15.9581 12.5 15.3137 12.5H14.1471C13.5027 12.5 12.9804 11.9963 12.9804 11.375V4.25001C12.9804 3.62869 13.5027 3.12501 14.1471 3.12501ZM9.82353 5.7498H8.65686C8.01253 5.7498 7.4902 6.25348 7.4902 6.8748V11.3748C7.4902 11.9961 8.01253 12.4998 8.65686 12.4998H9.82353C10.4679 12.4998 10.9902 11.9961 10.9902 11.3748V6.8748C10.9902 6.25348 10.4679 5.7498 9.82353 5.7498ZM4.33333 7.99976H3.16667C2.52233 7.99976 2 8.50344 2 9.12476V11.3748C2 11.9961 2.52233 12.4998 3.16667 12.4998H4.33333C4.97767 12.4998 5.5 11.9961 5.5 11.3748V9.12476C5.5 8.50344 4.97767 7.99976 4.33333 7.99976Z" fill="#FBFBFA"/>
<path fill-rule="evenodd" clip-rule="evenodd" d="M36.471 2.84599C38.9376 2.8461 41.3098 3.81668 43.0975 5.55712C43.2321 5.69149 43.4472 5.68979 43.5798 5.55332L44.8666 4.2234C44.9337 4.15418 44.9711 4.06042 44.9706 3.96287C44.97 3.86531 44.9315 3.77201 44.8636 3.7036C40.1717 -0.901199 32.7697 -0.901199 28.0777 3.7036C28.0098 3.77196 27.9712 3.86523 27.9706 3.96279C27.97 4.06034 28.0073 4.15413 28.0744 4.2234L29.3615 5.55332C29.494 5.69 29.7094 5.6917 29.8439 5.55712C31.6317 3.81656 34.0042 2.84598 36.471 2.84599ZM36.471 7.17266C37.8262 7.17257 39.1331 7.68843 40.1377 8.61999C40.2735 8.7522 40.4876 8.74933 40.62 8.61353L41.9053 7.28361C41.973 7.21386 42.0105 7.11922 42.0096 7.02089C42.0086 6.92255 41.9691 6.82872 41.9001 6.76039C38.841 3.84629 34.1036 3.84629 31.0446 6.76039C30.9755 6.82872 30.936 6.9226 30.9351 7.02097C30.9342 7.11933 30.9719 7.21396 31.0397 7.28361L32.3247 8.61353C32.4571 8.74933 32.6711 8.7522 32.807 8.61999C33.8109 7.68905 35.1167 7.17323 36.471 7.17266ZM39.0457 10.084C39.0476 10.1826 39.0098 10.2777 38.941 10.3468L36.7178 12.6445C36.6526 12.712 36.5637 12.75 36.471 12.75C36.3783 12.75 36.2895 12.712 36.2243 12.6445L34.0006 10.3468C33.9319 10.2776 33.8942 10.1825 33.8962 10.0839C33.8982 9.98529 33.9399 9.89191 34.0114 9.82581C35.4313 8.59595 37.5108 8.59595 38.9307 9.82581C39.0021 9.89196 39.0437 9.98537 39.0457 10.084Z" fill="#FBFBFA"/>
<g clip-path="url(#clip0_216_534)">
<rect opacity="0.4" x="51.4706" y="0.5" width="24" height="12" rx="3.5" stroke="#FBFBFA"/>
<path opacity="0.5" d="M76.9706 4.5V8.5C77.7765 8.16122 78.3006 7.37313 78.3006 6.5C78.3006 5.62687 77.7765 4.83878 76.9706 4.5Z" fill="#FBFBFA"/>
<rect x="52.9706" y="2" width="21" height="9" rx="2" fill="#FBFBFA"/>
</g>
<defs>
<clipPath id="clip0_216_534">
<rect width="27.33" height="13" fill="white" transform="translate(50.9706)"/>
</clipPath>
</defs>
</svg>
