<svg width="47" height="17" viewBox="0 0 47 17" fill="none" xmlns="http://www.w3.org/2000/svg">
<path d="M6.25488 15.2988C9.10205 15.2988 10.8286 12.8833 10.8286 9.01514V8.99854C10.8286 5.13037 9.10205 2.72314 6.25488 2.72314C3.40771 2.72314 1.69775 5.13037 1.69775 8.99854V9.01514C1.69775 12.8833 3.40771 15.2988 6.25488 15.2988ZM6.25488 13.564C4.72754 13.564 3.85596 11.854 3.85596 9.01514V8.99854C3.85596 6.15967 4.72754 4.46631 6.25488 4.46631C7.78223 4.46631 8.67041 6.15967 8.67041 8.99854V9.01514C8.67041 11.854 7.78223 13.564 6.25488 13.564ZM16.9194 2.72314C14.3213 2.72314 12.4702 4.49951 12.4702 6.93164V6.94824C12.4702 9.22266 14.0806 10.8994 16.3799 10.8994C18.0234 10.8994 19.0693 10.061 19.5093 9.11475H19.6753C19.6753 9.20605 19.667 9.29736 19.667 9.38867C19.5757 11.6797 18.7705 13.5391 16.8696 13.5391C15.8154 13.5391 15.0767 12.9912 14.7612 12.1528L14.7363 12.0698H12.6279L12.6445 12.1611C13.0264 13.9956 14.6699 15.2988 16.8696 15.2988C19.8828 15.2988 21.7007 12.9082 21.7007 8.87402V8.85742C21.7007 4.54102 19.4761 2.72314 16.9194 2.72314ZM16.9111 9.25586C15.5498 9.25586 14.562 8.25977 14.562 6.87354V6.85693C14.562 5.52051 15.6162 4.46631 16.936 4.46631C18.2642 4.46631 19.3018 5.53711 19.3018 6.90674V6.92334C19.3018 8.27637 18.2642 9.25586 16.9111 9.25586ZM24.9692 7.23877C25.7329 7.23877 26.2891 6.65771 26.2891 5.92725C26.2891 5.18848 25.7329 4.61572 24.9692 4.61572C24.2139 4.61572 23.6494 5.18848 23.6494 5.92725C23.6494 6.65771 24.2139 7.23877 24.9692 7.23877ZM24.9692 13.3979C25.7329 13.3979 26.2891 12.8252 26.2891 12.0864C26.2891 11.3477 25.7329 10.7749 24.9692 10.7749C24.2139 10.7749 23.6494 11.3477 23.6494 12.0864C23.6494 12.8252 24.2139 13.3979 24.9692 13.3979ZM34.0483 15H36.0986V12.7007H37.709V10.9326H36.0986V3.02197H33.0688C31.4419 5.49561 29.7402 8.25146 28.188 10.9492V12.7007H34.0483V15ZM30.1802 10.9824V10.8579C31.3423 8.82422 32.7285 6.60791 33.957 4.73193H34.0815V10.9824H30.1802ZM42.1729 15H44.3145V3.02197H42.1812L39.0518 5.22168V7.23877L42.0317 5.13037H42.1729V15Z" fill="#191919"/>
</svg>
