<svg width="48" height="32" viewBox="0 0 48 32" fill="none" xmlns="http://www.w3.org/2000/svg">
<rect width="48" height="32" rx="16" fill="#FE5C47"/>
<path fill-rule="evenodd" clip-rule="evenodd" d="M35.444 8.30313C35.5613 8.50918 35.5463 8.765 35.4056 8.9559L22.6955 26.2077C22.5521 26.4023 22.3059 26.4919 22.0709 26.4349C21.836 26.3779 21.6582 26.1854 21.62 25.9467L20.1854 16.9912L13.2161 11.1872C13.0303 11.0325 12.9555 10.7814 13.0264 10.5503C13.0973 10.3191 13.2999 10.1531 13.5405 10.1291L34.863 8.00297C35.099 7.97945 35.3267 8.09708 35.444 8.30313ZM15.084 11.1812L21.1262 16.2131C21.2377 16.3059 21.3118 16.436 21.3347 16.5792L22.5785 24.3434L33.6388 9.331L15.084 11.1812Z" fill="#FBFBFA"/>
<path fill-rule="evenodd" clip-rule="evenodd" d="M26.9359 13.1478C27.0999 13.4357 26.9993 13.8021 26.7114 13.966L21.0393 17.1957C20.7513 17.3597 20.3849 17.2591 20.221 16.9712C20.057 16.6832 20.1575 16.3169 20.4455 16.1529L26.1176 12.9232C26.4056 12.7593 26.7719 12.8598 26.9359 13.1478Z" fill="#FBFBFA"/>
</svg>
