<svg width="24" height="24" viewBox="0 0 24 24" fill="none" xmlns="http://www.w3.org/2000/svg">
<path fill-rule="evenodd" clip-rule="evenodd" d="M0.399965 12C0.399965 11.6686 0.668594 11.4 0.999965 11.4H23C23.3313 11.4 23.6 11.6686 23.6 12C23.6 12.3313 23.3313 12.6 23 12.6H0.999965C0.668594 12.6 0.399965 12.3313 0.399965 12Z" fill="#191919"/>
<path fill-rule="evenodd" clip-rule="evenodd" d="M9.35041 3.57748C9.58374 3.81277 9.58215 4.19267 9.34686 4.426L1.70924 12L9.34686 19.5739C9.58215 19.8073 9.58374 20.1872 9.35041 20.4224C9.11707 20.6577 8.73718 20.6593 8.50189 20.426L0.434658 12.426C0.321048 12.3133 0.257143 12.16 0.257143 12C0.257143 11.84 0.321048 11.6866 0.434658 11.5739L8.50189 3.57393C8.73718 3.3406 9.11707 3.34219 9.35041 3.57748Z" fill="#191919"/>
</svg>
