<svg width="16" height="18" viewBox="0 0 16 18" fill="none" xmlns="http://www.w3.org/2000/svg">
<path fill-rule="evenodd" clip-rule="evenodd" d="M11.4779 9.37784C11.4779 9.35177 11.4725 9.32598 11.4622 9.30205C11.4518 9.27813 11.4367 9.25658 11.4176 9.23874C11.4146 9.23585 11.4115 9.23291 11.4085 9.22992L3.8393 1.66069C3.68309 1.50448 3.68309 1.25121 3.8393 1.095C3.99551 0.938792 4.24878 0.938792 4.40499 1.095L11.9703 8.66032C12.0666 8.75201 12.1435 8.86216 12.1963 8.98423C12.2501 9.10849 12.2779 9.24245 12.2779 9.37784C12.2779 9.51324 12.2501 9.6472 12.1963 9.77146C12.1435 9.89352 12.0666 10.0037 11.9703 10.0954L4.40499 17.6607C4.24878 17.8169 3.99551 17.8169 3.8393 17.6607C3.68309 17.5045 3.68309 17.2512 3.8393 17.095L11.4085 9.52577C11.4115 9.52278 11.4146 9.51984 11.4176 9.51695C11.4367 9.4991 11.4518 9.47756 11.4622 9.45363C11.4725 9.42971 11.4779 9.40391 11.4779 9.37784Z" fill="#FBFBFA"/>
</svg>
