<svg width="24" height="26" viewBox="0 0 24 26" fill="none" xmlns="http://www.w3.org/2000/svg">
<path fill-rule="evenodd" clip-rule="evenodd" d="M6.78321 12.8168C6.78321 12.8559 6.79123 12.8946 6.80676 12.9305C6.8223 12.9664 6.84503 12.9987 6.87354 13.0254C6.87817 13.0298 6.88272 13.0342 6.8872 13.0387L18.241 24.3925C18.4754 24.6268 18.4754 25.0067 18.241 25.2411C18.0067 25.4754 17.6268 25.4754 17.3925 25.2411L6.04454 13.8931C5.9001 13.7555 5.78479 13.5903 5.70553 13.4072C5.62484 13.2208 5.58321 13.0199 5.58321 12.8168C5.58321 12.6137 5.62484 12.4127 5.70553 12.2264C5.78479 12.0433 5.9001 11.878 6.04454 11.7405L17.3925 0.392521C17.6268 0.158207 18.0067 0.158207 18.241 0.392521C18.4754 0.626837 18.4754 1.00673 18.241 1.24105L6.8872 12.5949C6.88272 12.5994 6.87817 12.6038 6.87354 12.6081C6.84503 12.6349 6.8223 12.6672 6.80676 12.7031C6.79123 12.739 6.78321 12.7777 6.78321 12.8168Z" fill="#FBFBFA"/>
</svg>
