<svg width="25" height="24" viewBox="0 0 25 24" fill="none" xmlns="http://www.w3.org/2000/svg">
<g clip-path="url(#clip0_141_727)">
<path fill-rule="evenodd" clip-rule="evenodd" d="M6.00097 18.0325L4.81164 20.4112L7.34244 18.7122L7.92328 18.9341C9.37316 19.4879 10.9108 19.7701 12.5001 19.7701C18.672 19.7701 23.3001 15.6358 23.3001 10.9991C23.3001 6.36241 18.6721 2.22905 12.5001 2.22905C6.32815 2.22905 1.70006 6.36327 1.70006 11.0001C1.70006 13.3951 2.92174 15.7307 5.19754 17.4319L6.00097 18.0325ZM3.27806 22.8861C3.19306 22.9431 3.09606 22.9711 2.99906 22.9711C2.88006 22.9711 2.76306 22.9291 2.66906 22.8461C2.49906 22.6961 2.45006 22.4501 2.55206 22.2471L4.47906 18.3931C1.94406 16.4981 0.500061 13.8251 0.500061 11.0001C0.500061 5.50205 5.88306 1.02905 12.5001 1.02905C19.1171 1.02905 24.5001 5.50105 24.5001 10.9991C24.5001 16.4971 19.1171 20.9701 12.5001 20.9701C10.7671 20.9701 9.08406 20.6621 7.49506 20.0551L3.27806 22.8861Z" fill="#191919"/>
</g>
<defs>
<clipPath id="clip0_141_727">
<rect width="24" height="24" fill="white" transform="translate(0.500061)"/>
</clipPath>
</defs>
</svg>
