<svg width="26" height="24" viewBox="0 0 26 24" fill="none" xmlns="http://www.w3.org/2000/svg">
<path fill-rule="evenodd" clip-rule="evenodd" d="M13.0001 17.0335C13.0392 17.0335 13.0779 17.0255 13.1138 17.01C13.1497 16.9944 13.182 16.9717 13.2088 16.9432C13.2131 16.9386 13.2175 16.934 13.222 16.9295L24.5758 5.57568C24.8101 5.34137 25.19 5.34137 25.4244 5.57568C25.6587 5.81 25.6587 6.1899 25.4244 6.42421L14.0764 17.7722C13.9388 17.9166 13.7736 18.0319 13.5905 18.1112C13.4041 18.1919 13.2032 18.2335 13.0001 18.2335C12.797 18.2335 12.5961 18.1919 12.4097 18.1112C12.2266 18.0319 12.0613 17.9166 11.9238 17.7722L0.575832 6.42421C0.341518 6.1899 0.341518 5.81 0.575832 5.57568C0.810148 5.34137 1.19005 5.34137 1.42436 5.57568L12.7782 16.9295C12.7827 16.934 12.7871 16.9386 12.7914 16.9432C12.8182 16.9717 12.8505 16.9944 12.8864 17.01C12.9223 17.0255 12.961 17.0335 13.0001 17.0335Z" fill="#191919"/>
</svg>
