<svg width="24" height="24" viewBox="0 0 24 24" fill="none" xmlns="http://www.w3.org/2000/svg">
<path fill-rule="evenodd" clip-rule="evenodd" d="M5.90881 23.7784C5.58568 23.7049 5.38326 23.3834 5.4567 23.0603L10.4987 0.875434C10.5722 0.552303 10.8936 0.349887 11.2168 0.423326C11.5399 0.496765 11.7423 0.818248 11.6689 1.14138L6.62686 23.3263C6.55342 23.6494 6.23194 23.8518 5.90881 23.7784Z" fill="#191919"/>
<path fill-rule="evenodd" clip-rule="evenodd" d="M12.9845 23.7784C12.6614 23.7049 12.4589 23.3834 12.5324 23.0603L17.5744 0.875434C17.6478 0.552303 17.9693 0.349887 18.2925 0.423326C18.6156 0.496765 18.818 0.818248 18.7446 1.14138L13.7025 23.3263C13.6291 23.6494 13.3076 23.8518 12.9845 23.7784Z" fill="#191919"/>
<path fill-rule="evenodd" clip-rule="evenodd" d="M4.3999 7.05886C4.3999 6.72749 4.66853 6.45886 4.9999 6.45886L20.9999 6.45886C21.3313 6.45886 21.5999 6.72749 21.5999 7.05886C21.5999 7.39023 21.3313 7.65886 20.9999 7.65886L4.9999 7.65886C4.66853 7.65886 4.3999 7.39023 4.3999 7.05886Z" fill="#191919"/>
<path fill-rule="evenodd" clip-rule="evenodd" d="M2.3999 16.1428C2.3999 15.8115 2.66853 15.5428 2.9999 15.5428L18.9999 15.5428C19.3313 15.5428 19.5999 15.8115 19.5999 16.1428C19.5999 16.4742 19.3313 16.7428 18.9999 16.7428L2.9999 16.7428C2.66853 16.7428 2.3999 16.4742 2.3999 16.1428Z" fill="#191919"/>
</svg>
