<svg width="24" height="25" viewBox="0 0 24 25" fill="none" xmlns="http://www.w3.org/2000/svg">
<g clip-path="url(#clip0_194_1235)">
<path fill-rule="evenodd" clip-rule="evenodd" d="M7.28339 11.2034C7.51661 11.4388 7.51482 11.8187 7.27941 12.0519L1.77681 17.5031C1.67249 17.6067 1.58942 17.7301 1.5329 17.8657C1.47633 18.0015 1.4472 18.1472 1.4472 18.2943C1.4472 18.4414 1.47633 18.587 1.5329 18.7228C1.58947 18.8586 1.67237 18.9818 1.77681 19.0854L1.77855 19.0871L5.41458 22.7232C5.51816 22.8276 5.6414 22.9105 5.77719 22.9671C5.91297 23.0237 6.05862 23.0528 6.20572 23.0528C6.35281 23.0528 6.49846 23.0237 6.63424 22.9671C6.76992 22.9106 6.89307 22.8277 6.99661 22.7234M6.99661 22.7234L12.448 17.2206C12.6812 16.9852 13.0611 16.9834 13.2966 17.2166C13.532 17.4498 13.5338 17.8297 13.3005 18.0651L7.84911 23.568C7.63397 23.7849 7.37775 23.9573 7.09574 24.0748C6.81372 24.1923 6.51123 24.2528 6.20572 24.2528C5.9002 24.2528 5.59771 24.1923 5.31569 24.0748C5.03404 23.9575 4.77838 23.7856 4.56341 23.5691C4.56313 23.5688 4.56285 23.5685 4.56257 23.5682L0.931766 19.9374C0.931442 19.9371 0.931119 19.9368 0.930796 19.9364C0.714339 19.7215 0.542507 19.4659 0.425188 19.1843C0.307695 18.9023 0.247204 18.5998 0.247204 18.2943C0.247204 17.9888 0.307695 17.6863 0.425188 17.4042C0.542682 17.1222 0.714852 16.8663 0.931766 16.6511L6.43488 11.1994C6.67029 10.9662 7.05018 10.968 7.28339 11.2034" fill="#FBFBFA"/>
<path fill-rule="evenodd" clip-rule="evenodd" d="M16.9043 0.925177C17.1863 0.807684 17.4888 0.747192 17.7943 0.747192C18.0998 0.747192 18.4023 0.807684 18.6843 0.925177C18.9663 1.04267 19.2223 1.21484 19.4374 1.43175L19.4387 1.43304L23.0194 5.06514C23.2351 5.27975 23.4064 5.53479 23.5234 5.81568C23.6409 6.0977 23.7014 6.40019 23.7014 6.7057C23.7014 7.01122 23.6409 7.31371 23.5234 7.59572C23.4061 7.8773 23.2343 8.13291 23.0178 8.34784C23.0175 8.34818 23.0171 8.34851 23.0168 8.34885L17.5671 13.7985C17.3328 14.0329 16.9529 14.0329 16.7186 13.7985C16.4843 13.5642 16.4843 13.1843 16.7186 12.95L22.17 7.49858L22.1718 7.49685C22.2762 7.39326 22.3591 7.27002 22.4157 7.13423C22.4722 6.99845 22.5014 6.8528 22.5014 6.7057C22.5014 6.55861 22.4722 6.41296 22.4157 6.27718C22.3591 6.14139 22.2762 6.01815 22.1718 5.91456L22.167 5.90982L18.5854 2.2768C18.5852 2.27661 18.5856 2.27699 18.5854 2.2768C18.482 2.17263 18.3584 2.08936 18.2228 2.03289C18.087 1.97632 17.9414 1.94719 17.7943 1.94719C17.6472 1.94719 17.5015 1.97632 17.3658 2.03289C17.23 2.08946 17.1067 2.17236 17.0031 2.2768L11.552 7.7794C11.3188 8.01481 10.9389 8.0166 10.7034 7.78338C10.468 7.55017 10.4663 7.17028 10.6995 6.93486L16.1509 1.43201C16.366 1.21509 16.6222 1.04267 16.9043 0.925177Z" fill="#FBFBFA"/>
<path fill-rule="evenodd" clip-rule="evenodd" d="M15.8528 8.64714C16.0871 8.88146 16.0871 9.26135 15.8528 9.49567L8.99569 16.3528C8.76138 16.5871 8.38148 16.5871 8.14716 16.3528C7.91285 16.1185 7.91285 15.7386 8.14716 15.5043L15.0043 8.64714C15.2386 8.41283 15.6185 8.41283 15.8528 8.64714Z" fill="#FBFBFA"/>
</g>
<defs>
<clipPath id="clip0_194_1235">
<rect width="24" height="24" fill="white" transform="translate(0 0.5)"/>
</clipPath>
</defs>
</svg>
