<svg width="24" height="24" viewBox="0 0 24 24" fill="none" xmlns="http://www.w3.org/2000/svg">
<path fill-rule="evenodd" clip-rule="evenodd" d="M0.257141 3.42855C0.257141 3.09718 0.52577 2.82855 0.857141 2.82855H23.1429C23.4742 2.82855 23.7429 3.09718 23.7429 3.42855C23.7429 3.75992 23.4742 4.02855 23.1429 4.02855H0.857141C0.52577 4.02855 0.257141 3.75992 0.257141 3.42855Z" fill="#191919"/>
<path fill-rule="evenodd" clip-rule="evenodd" d="M0.257141 12C0.257141 11.6686 0.52577 11.4 0.857141 11.4H23.1429C23.4742 11.4 23.7429 11.6686 23.7429 12C23.7429 12.3313 23.4742 12.6 23.1429 12.6H0.857141C0.52577 12.6 0.257141 12.3313 0.257141 12Z" fill="#191919"/>
<path fill-rule="evenodd" clip-rule="evenodd" d="M0.257141 20.5714C0.257141 20.2401 0.52577 19.9714 0.857141 19.9714H23.1429C23.4742 19.9714 23.7429 20.2401 23.7429 20.5714C23.7429 20.9028 23.4742 21.1714 23.1429 21.1714H0.857141C0.52577 21.1714 0.257141 20.9028 0.257141 20.5714Z" fill="#191919"/>
</svg>
