<svg width="24" height="24" viewBox="0 0 24 24" fill="none" xmlns="http://www.w3.org/2000/svg">
<path fill-rule="evenodd" clip-rule="evenodd" d="M20.5713 10.0286C19.4825 10.0286 18.5999 10.9113 18.5999 12C18.5999 13.0888 19.4825 13.9715 20.5713 13.9715C21.6601 13.9715 22.5428 13.0888 22.5428 12C22.5428 10.9113 21.6601 10.0286 20.5713 10.0286ZM17.3999 12C17.3999 10.2485 18.8198 8.82861 20.5713 8.82861C22.3229 8.82861 23.7428 10.2485 23.7428 12C23.7428 13.7516 22.3229 15.1715 20.5713 15.1715C18.8198 15.1715 17.3999 13.7516 17.3999 12Z" fill="#191919"/>
<path fill-rule="evenodd" clip-rule="evenodd" d="M12 10.0286C10.9113 10.0286 10.0286 10.9113 10.0286 12C10.0286 13.0888 10.9113 13.9715 12 13.9715C13.0888 13.9715 13.9715 13.0888 13.9715 12C13.9715 10.9113 13.0888 10.0286 12 10.0286ZM8.82861 12C8.82861 10.2485 10.2485 8.82861 12 8.82861C13.7516 8.82861 15.1715 10.2485 15.1715 12C15.1715 13.7516 13.7516 15.1715 12 15.1715C10.2485 15.1715 8.82861 13.7516 8.82861 12Z" fill="#191919"/>
<path fill-rule="evenodd" clip-rule="evenodd" d="M3.42851 10.0286C2.33972 10.0286 1.45708 10.9113 1.45708 12C1.45708 13.0888 2.33972 13.9715 3.42851 13.9715C4.5173 13.9715 5.39994 13.0888 5.39994 12C5.39994 10.9113 4.5173 10.0286 3.42851 10.0286ZM0.25708 12C0.25708 10.2485 1.67698 8.82861 3.42851 8.82861C5.18004 8.82861 6.59994 10.2485 6.59994 12C6.59994 13.7516 5.18004 15.1715 3.42851 15.1715C1.67698 15.1715 0.25708 13.7516 0.25708 12Z" fill="#191919"/>
</svg>
