<svg width="24" height="24" viewBox="0 0 24 24" fill="none" xmlns="http://www.w3.org/2000/svg">
<path fill-rule="evenodd" clip-rule="evenodd" d="M10.1486 1.45714C5.34843 1.45714 1.45714 5.34843 1.45714 10.1486C1.45714 14.9487 5.34843 18.84 10.1486 18.84C14.9487 18.84 18.84 14.9487 18.84 10.1486C18.84 5.34843 14.9487 1.45714 10.1486 1.45714ZM0.257141 10.1486C0.257141 4.68569 4.68569 0.257141 10.1486 0.257141C15.6115 0.257141 20.04 4.68569 20.04 10.1486C20.04 15.6115 15.6115 20.04 10.1486 20.04C4.68569 20.04 0.257141 15.6115 0.257141 10.1486Z" fill="#191919"/>
<path fill-rule="evenodd" clip-rule="evenodd" d="M16.29 16.29C16.5243 16.0557 16.9042 16.0557 17.1386 16.29L23.5671 22.7186C23.8014 22.9529 23.8014 23.3328 23.5671 23.5671C23.3328 23.8014 22.9529 23.8014 22.7186 23.5671L16.29 17.1385C16.0557 16.9042 16.0557 16.5243 16.29 16.29Z" fill="#191919"/>
</svg>
