<svg width="24" height="24" viewBox="0 0 24 24" fill="none" xmlns="http://www.w3.org/2000/svg">
<path fill-rule="evenodd" clip-rule="evenodd" d="M11.2954 0.257146L11.2971 0.257141L12.7046 0.257144C13.1708 0.258523 13.6257 0.400664 14.0098 0.664952C14.3936 0.929122 14.6888 1.30302 14.8567 1.73771C14.8566 1.73752 14.8568 1.7379 14.8567 1.73771L15.5172 3.44277L17.6543 4.67233L19.4793 4.39394C19.934 4.33222 20.3968 4.40716 20.8089 4.60907C21.221 4.81099 21.5637 5.13086 21.7936 5.52802L21.7952 5.53088L22.4793 6.72793C22.7151 7.13063 22.8236 7.59525 22.7907 8.06081C22.7577 8.52692 22.5844 8.9721 22.2936 9.3378C22.2931 9.33842 22.2926 9.33902 22.2921 9.33963L21.1714 10.7674V13.2282L22.3264 14.6604C22.6181 15.0264 22.7919 15.4723 22.825 15.9392C22.8579 16.4048 22.7493 16.8694 22.5135 17.2722L21.8295 18.4691L21.8279 18.472C21.598 18.8691 21.2553 19.189 20.8432 19.3909C20.4311 19.5928 19.9683 19.6677 19.5136 19.606L19.5038 19.6046L17.6886 19.3277L15.5515 20.5572L14.8912 22.2617C14.8911 22.2618 14.8913 22.2616 14.8912 22.2617C14.7233 22.6965 14.428 23.0708 14.0441 23.335C13.66 23.5993 13.2051 23.7415 12.7389 23.7429L12.7371 23.7429H11.2971L11.2954 23.7429C10.8292 23.7415 10.3743 23.5993 9.99023 23.335C9.60631 23.0708 9.3111 22.6969 9.14325 22.2621C9.14319 22.262 9.1433 22.2623 9.14325 22.2621L8.48279 20.5572L6.3457 19.3277L4.52071 19.6061C4.06599 19.6678 3.60318 19.5928 3.1911 19.3909C2.77903 19.189 2.43628 18.8691 2.20642 18.472L2.20477 18.4691L1.52079 17.2722C1.28495 16.8694 1.17635 16.4048 1.20932 15.9392C1.24231 15.4731 1.41562 15.0279 1.70641 14.6622L2.82857 13.2326V10.7718L1.67361 9.33964C1.38192 8.97359 1.20808 8.52769 1.17503 8.06081C1.14207 7.59525 1.25065 7.13063 1.48646 6.72793L2.17212 5.52802C2.40199 5.13085 2.74474 4.81099 3.15682 4.60907C3.5689 4.40716 4.0317 4.3323 4.48642 4.39402L4.49621 4.39535L6.31336 4.67263L8.4835 3.44093L9.14309 1.73829C9.14302 1.73846 9.14315 1.73811 9.14309 1.73829C9.31095 1.30357 9.60634 0.929133 9.99023 0.664952C10.3743 0.400664 10.8292 0.258523 11.2954 0.257146ZM12.7019 1.45714H11.2981C11.0739 1.45797 10.8552 1.52639 10.6705 1.65349C10.4856 1.78074 10.3434 1.96087 10.2626 2.17028L9.5252 4.07388C9.47522 4.20289 9.3822 4.31066 9.26188 4.37896L6.72474 5.81895C6.60752 5.88548 6.47133 5.91061 6.33809 5.89028L4.32064 5.58254C4.10311 5.55389 3.88192 5.59009 3.68484 5.68666C3.48687 5.78367 3.32214 5.93721 3.21147 6.12785L2.52299 7.33268C2.40878 7.52695 2.35612 7.75127 2.37203 7.97606C2.38791 8.20033 2.47126 8.41454 2.61111 8.59055C2.61144 8.59097 2.61177 8.59138 2.6121 8.59179L3.89562 10.1833C3.98165 10.29 4.02857 10.4229 4.02857 10.56V13.44C4.02857 13.5743 3.98349 13.7048 3.90054 13.8105L2.64639 15.4082C2.50595 15.5845 2.42223 15.7991 2.40632 16.0239C2.3904 16.2487 2.44303 16.4731 2.55724 16.6673L2.56099 16.6737L3.24501 17.8709C3.24526 17.8713 3.2455 17.8717 3.24575 17.8722C3.35642 18.0628 3.52115 18.2163 3.71912 18.3133C3.91621 18.4099 4.13741 18.4461 4.35494 18.4175L6.37238 18.1097C6.5068 18.0892 6.64421 18.115 6.76207 18.1828L9.26493 19.6228C9.38381 19.6912 9.47566 19.7982 9.5252 19.9261L10.2623 21.829C10.3432 22.0384 10.4856 22.2193 10.6705 22.3465C10.8553 22.4736 11.0741 22.5421 11.2983 22.5429C11.2981 22.5429 11.2985 22.5429 11.2983 22.5429L12.7354 22.5429C12.7352 22.5429 12.7356 22.5429 12.7354 22.5429C12.9596 22.5421 13.179 22.4736 13.3638 22.3465C13.5487 22.2193 13.6909 22.0391 13.7717 21.8297L14.5091 19.9261C14.5586 19.7982 14.6505 19.6912 14.7694 19.6228L17.2722 18.1828C17.3901 18.115 17.5275 18.0892 17.6619 18.1097L19.6794 18.4175C19.8969 18.4461 20.1181 18.4099 20.3152 18.3133C20.5131 18.2163 20.6778 18.0628 20.7885 17.8722C20.7888 17.8718 20.789 17.8713 20.7893 17.8709L21.477 16.6673C21.5912 16.473 21.6439 16.2487 21.628 16.0239C21.6121 15.7996 21.5287 15.5853 21.3887 15.4093C21.3885 15.4089 21.3882 15.4086 21.3879 15.4082L20.1044 13.8167C20.0183 13.71 19.9714 13.5771 19.9714 13.44V10.56C19.9714 10.4257 20.0165 10.2952 20.0995 10.1895L21.3509 8.59525L21.3536 8.59179C21.4941 8.41555 21.5778 8.20086 21.5937 7.97606C21.6096 7.75127 21.557 7.52693 21.4428 7.33265L21.439 7.32628L20.755 6.12912C20.7548 6.12874 20.7545 6.12836 20.7543 6.12798C20.6437 5.93728 20.4789 5.78369 20.2809 5.68666C20.0838 5.59009 19.8626 5.55389 19.6451 5.58253L17.6276 5.89028C17.4932 5.91079 17.3558 5.88502 17.2379 5.81721L14.7351 4.37721C14.6162 4.30882 14.5243 4.20177 14.4748 4.07388L13.7377 2.17102C13.6569 1.96161 13.5144 1.78074 13.3295 1.65349C13.1448 1.52639 12.9261 1.45797 12.7019 1.45714ZM9.15137 9.15137C9.90687 8.39587 10.9316 7.97143 12 7.97143C12.7968 7.97143 13.5757 8.2077 14.2382 8.65037C14.9007 9.09303 15.417 9.72221 15.7219 10.4583C16.0268 11.1945 16.1066 12.0045 15.9512 12.7859C15.7957 13.5674 15.412 14.2852 14.8486 14.8486C14.2852 15.412 13.5674 15.7957 12.7859 15.9512C12.0045 16.1066 11.1945 16.0268 10.4583 15.7219C9.72221 15.417 9.09303 14.9006 8.65037 14.2382C8.2077 13.5757 7.97143 12.7968 7.97143 12C7.97143 10.9316 8.39587 9.90687 9.15137 9.15137ZM12 9.17143C11.2498 9.17143 10.5304 9.46944 9.9999 9.9999C9.46944 10.5304 9.17143 11.2498 9.17143 12C9.17143 12.5594 9.33732 13.1063 9.64813 13.5715C9.95894 14.0366 10.4007 14.3992 10.9176 14.6133C11.4344 14.8273 12.0031 14.8834 12.5518 14.7742C13.1005 14.6651 13.6045 14.3957 14.0001 14.0001C14.3957 13.6045 14.6651 13.1005 14.7742 12.5518C14.8834 12.0031 14.8273 11.4344 14.6133 10.9176C14.3992 10.4007 14.0366 9.95894 13.5715 9.64813C13.1063 9.33732 12.5594 9.17143 12 9.17143Z" fill="#191919"/>
</svg>
