<svg width="24" height="24" viewBox="0 0 24 24" fill="none" xmlns="http://www.w3.org/2000/svg">
<path fill-rule="evenodd" clip-rule="evenodd" d="M0.399902 11.8571C0.399902 5.45064 5.5934 0.257141 11.9999 0.257141C18.4065 0.257141 23.5999 5.45064 23.5999 11.8571C23.5999 18.2637 18.4065 23.4571 11.9999 23.4571C5.5934 23.4571 0.399902 18.2637 0.399902 11.8571ZM11.9999 1.45714C6.25614 1.45714 1.5999 6.11338 1.5999 11.8571C1.5999 17.601 6.25614 22.2571 11.9999 22.2571C17.7437 22.2571 22.3999 17.601 22.3999 11.8571C22.3999 6.11338 17.7437 1.45714 11.9999 1.45714Z" fill="#191919"/>
<path fill-rule="evenodd" clip-rule="evenodd" d="M6.68198 14.4912C6.96299 14.3156 7.33316 14.401 7.50878 14.682C9.58315 18.001 14.4168 18.001 16.4912 14.682C16.6668 14.401 17.037 14.3156 17.318 14.4912C17.599 14.6668 17.6844 15.037 17.5088 15.318C14.9644 19.389 9.03555 19.389 6.49118 15.318C6.31556 15.037 6.40098 14.6668 6.68198 14.4912Z" fill="#191919"/>
<path fill-rule="evenodd" clip-rule="evenodd" d="M7.3999 9.50002C7.3999 8.89251 7.89239 8.40002 8.4999 8.40002C9.10741 8.40002 9.5999 8.89251 9.5999 9.50002C9.5999 10.1075 9.10741 10.6 8.4999 10.6C7.89239 10.6 7.3999 10.1075 7.3999 9.50002ZM8.4999 9.60002C8.55513 9.60002 8.5999 9.55526 8.5999 9.50002C8.5999 9.44479 8.55513 9.40002 8.4999 9.40002C8.44467 9.40002 8.3999 9.44479 8.3999 9.50002C8.3999 9.55526 8.44467 9.60002 8.4999 9.60002Z" fill="#191919"/>
<path fill-rule="evenodd" clip-rule="evenodd" d="M14.3999 9.50002C14.3999 8.89251 14.8924 8.40002 15.4999 8.40002C16.1074 8.40002 16.5999 8.89251 16.5999 9.50002C16.5999 10.1075 16.1074 10.6 15.4999 10.6C14.8924 10.6 14.3999 10.1075 14.3999 9.50002ZM15.4999 9.60002C15.5551 9.60002 15.5999 9.55526 15.5999 9.50002C15.5999 9.44479 15.5551 9.40002 15.4999 9.40002C15.4447 9.40002 15.3999 9.44479 15.3999 9.50002C15.3999 9.55526 15.4447 9.60002 15.4999 9.60002Z" fill="#191919"/>
</svg>
