<svg width="26" height="24" viewBox="0 0 26 24" fill="none" xmlns="http://www.w3.org/2000/svg">
<path fill-rule="evenodd" clip-rule="evenodd" d="M12.9999 6.60002C12.9608 6.60002 12.9221 6.60804 12.8862 6.62358C12.8503 6.63911 12.818 6.66184 12.7912 6.69035C12.7869 6.69498 12.7825 6.69953 12.778 6.70402L1.42417 18.0579C1.18985 18.2922 0.809953 18.2922 0.575638 18.0579C0.341324 17.8235 0.341324 17.4436 0.575638 17.2093L11.9236 5.86135C12.0612 5.71691 12.2264 5.6016 12.4095 5.52234C12.5959 5.44165 12.7968 5.40002 12.9999 5.40002C13.203 5.40002 13.4039 5.44165 13.5903 5.52234C13.7734 5.6016 13.9387 5.71691 14.0762 5.86135L25.4242 17.2093C25.6585 17.4436 25.6585 17.8235 25.4242 18.0579C25.1899 18.2922 24.81 18.2922 24.5756 18.0579L13.2218 6.70402C13.2173 6.69953 13.2129 6.69498 13.2086 6.69035C13.1818 6.66184 13.1495 6.63911 13.1136 6.62358C13.0777 6.60804 13.039 6.60002 12.9999 6.60002Z" fill="#191919"/>
</svg>
