<svg width="24" height="24" viewBox="0 0 24 24" fill="none" xmlns="http://www.w3.org/2000/svg">
<g clip-path="url(#clip0_10_189)">
<path fill-rule="evenodd" clip-rule="evenodd" d="M12 1.4572C9.2544 1.4572 7.02861 3.68299 7.02861 6.42863C7.02861 9.17427 9.2544 11.4001 12 11.4001C14.7457 11.4001 16.9715 9.17427 16.9715 6.42863C16.9715 3.68299 14.7457 1.4572 12 1.4572ZM5.82861 6.42863C5.82861 3.02024 8.59166 0.257202 12 0.257202C15.4084 0.257202 18.1715 3.02024 18.1715 6.42863C18.1715 9.83702 15.4084 12.6001 12 12.6001C8.59166 12.6001 5.82861 9.83702 5.82861 6.42863Z" fill="#191919"/>
<path fill-rule="evenodd" clip-rule="evenodd" d="M5.08958 17.0673C7.0963 15.6035 9.51605 14.8147 12 14.8147C14.4839 14.8147 16.9036 15.6035 18.9103 17.0673C20.917 18.5312 22.4071 20.5945 23.1656 22.9597C23.2241 23.1423 23.1919 23.3417 23.079 23.4966C22.966 23.6514 22.7859 23.743 22.5942 23.743H1.40567C1.21401 23.743 1.03389 23.6514 0.920935 23.4966C0.807985 23.3417 0.775802 23.1423 0.834328 22.9597C1.59284 20.5945 3.08286 18.5312 5.08958 17.0673ZM12 16.0147C9.77025 16.0147 7.59814 16.7228 5.79678 18.0368C4.22067 19.1865 2.99964 20.7482 2.26285 22.543H21.7371C21.0003 20.7482 19.7792 19.1865 18.2031 18.0368C16.4018 16.7228 14.2297 16.0147 12 16.0147Z" fill="#191919"/>
</g>
<defs>
<clipPath id="clip0_10_189">
<rect width="24" height="24" fill="white"/>
</clipPath>
</defs>
</svg>
