<svg width="24" height="24" viewBox="0 0 24 24" fill="none" xmlns="http://www.w3.org/2000/svg">
<g clip-path="url(#clip0_141_1476)">
<path fill-rule="evenodd" clip-rule="evenodd" d="M12 1.45714C9.25434 1.45714 7.02855 3.68293 7.02855 6.42857C7.02855 9.17421 9.25434 11.4 12 11.4C14.7456 11.4 16.9714 9.17421 16.9714 6.42857C16.9714 3.68293 14.7456 1.45714 12 1.45714ZM5.82855 6.42857C5.82855 3.02018 8.59159 0.257141 12 0.257141C15.4084 0.257141 18.1714 3.02018 18.1714 6.42857C18.1714 9.83695 15.4084 12.6 12 12.6C8.59159 12.6 5.82855 9.83695 5.82855 6.42857Z" fill="#191919"/>
<path fill-rule="evenodd" clip-rule="evenodd" d="M5.08961 17.0672C7.09633 15.6034 9.51608 14.8146 12 14.8146C14.4839 14.8146 16.9036 15.6034 18.9104 17.0672C20.9171 18.5311 22.4071 20.5944 23.1656 22.9596C23.2241 23.1421 23.192 23.3416 23.079 23.4965C22.9661 23.6513 22.7859 23.7429 22.5943 23.7429H1.4057C1.21404 23.7429 1.03392 23.6513 0.920966 23.4965C0.808015 23.3416 0.775832 23.1421 0.834359 22.9596C1.59287 20.5944 3.08289 18.5311 5.08961 17.0672ZM12 16.0146C9.77028 16.0146 7.59817 16.7226 5.79681 18.0367C4.2207 19.1864 2.99967 20.7481 2.26288 22.5429H21.7371C21.0003 20.7481 19.7793 19.1864 18.2032 18.0367C16.4018 16.7226 14.2297 16.0146 12 16.0146Z" fill="#191919"/>
<path fill-rule="evenodd" clip-rule="evenodd" d="M20 9.4C20.3314 9.4 20.6 9.66863 20.6 10V16C20.6 16.3314 20.3314 16.6 20 16.6C19.6686 16.6 19.4 16.3314 19.4 16V10C19.4 9.66863 19.6686 9.4 20 9.4Z" fill="#191919"/>
<path fill-rule="evenodd" clip-rule="evenodd" d="M16.4 13C16.4 12.6686 16.6686 12.4 17 12.4H23C23.3314 12.4 23.6 12.6686 23.6 13C23.6 13.3314 23.3314 13.6 23 13.6H17C16.6686 13.6 16.4 13.3314 16.4 13Z" fill="#191919"/>
</g>
<defs>
<clipPath id="clip0_141_1476">
<rect width="24" height="24" fill="white"/>
</clipPath>
</defs>
</svg>
