<svg width="48" height="48" viewBox="0 0 48 48" fill="none" xmlns="http://www.w3.org/2000/svg">
<path d="M0.531312 15.4659C1.50735 7.65765 7.65765 1.50735 15.4659 0.531312C21.1333 -0.177104 26.8667 -0.177104 32.5341 0.531312C40.3423 1.50735 46.4927 7.65765 47.4687 15.4659C48.1771 21.1333 48.1771 26.8667 47.4687 32.5341C46.4927 40.3423 40.3424 46.4927 32.5341 47.4687C26.8667 48.1771 21.1333 48.1771 15.4659 47.4687C7.65765 46.4927 1.50735 40.3424 0.531312 32.5341C-0.177104 26.8667 -0.177104 21.1333 0.531312 15.4659Z" fill="#94BFE7"/>
<path d="M23.9298 23.4699C27.2966 23.4699 30.0258 20.7407 30.0258 17.3739C30.0258 14.0072 27.2966 11.278 23.9298 11.278C20.5631 11.278 17.8339 14.0072 17.8339 17.3739C17.8339 20.7407 20.5631 23.4699 23.9298 23.4699Z" fill="#C4DBF1"/>
<path d="M35.5215 35.662C34.7341 33.2064 33.1872 31.0644 31.1039 29.5447C29.0206 28.0249 26.5085 27.2061 23.9298 27.2061C21.3511 27.2061 18.839 28.0249 16.7557 29.5447C14.6724 31.0644 13.1255 33.2064 12.338 35.662H35.5215Z" fill="#C4DBF1"/>
</svg>
